USFL
nRows=201
nColumns=2
inDegrees=yes
endheader
time	med_gas_r	
6.55343	 39.669670	
6.58669	 39.710708	
6.61996	 39.762341	
6.65323	 39.788261	
6.68649	 39.777720	
6.71976	 39.774767	
6.75302	 39.790679	
6.78629	 39.790568	
6.81956	 39.790882	
6.85282	 39.758101	
6.88609	 39.762560	
6.91935	 39.683819	
6.95262	 39.640837	
6.98589	 39.582550	
7.01915	 39.629189	
7.05242	 39.639678	
7.08569	 39.617369	
7.11895	 39.648739	
7.15222	 39.651526	
7.18548	 39.668653	
7.21875	 39.692793	
7.25202	 39.698083	
7.28528	 39.763951	
7.31855	 39.776499	
7.35181	 39.855948	
7.38508	 39.862642	
7.41835	 39.868486	
7.45161	 39.878353	
7.48488	 39.899765	
7.51815	 39.916850	
7.55141	 39.908010	
7.58468	 39.910826	
7.61794	 39.927646	
7.65121	 39.947245	
7.68448	 39.978219	
7.71774	 39.988308	
7.75101	 39.961967	
7.78427	 39.961889	
7.81754	 39.982419	
7.85081	 39.965749	
7.88407	 39.960410	
7.91734	 39.933584	
7.9506	 39.887043	
7.98387	 39.866976	
8.01714	 39.876563	
8.0504	 39.868669	
8.08367	 39.851425	
8.11694	 39.855165	
8.1502	 39.870315	
8.18347	 39.888721	
8.21673	 39.924466	
8.25	 39.920104	
8.28327	 39.963053	
8.31653	 40.006911	
8.3498	 39.999152	
8.38306	 40.070965	
8.41633	 40.177499	
8.4496	 40.218011	
8.48286	 40.186037	
8.51613	 40.189774	
8.5494	 40.151291	
8.58266	 40.166219	
8.61593	 40.235981	
8.64919	 40.224086	
8.68246	 40.236701	
8.71573	 40.332915	
8.74899	 40.152831	
8.78226	 39.956331	
8.81552	 39.794413	
8.84879	 39.712657	
8.88206	 39.839938	
8.91532	 38.984398	
8.94859	 35.440739	
8.98185	 35.267991	
9.01512	 35.362009	
9.04839	 35.293210	
9.08165	 35.308250	
9.11492	 35.434310	
9.14819	 35.568507	
9.18145	 35.693917	
9.21472	 35.604533	
9.24798	 35.623326	
9.28125	 35.680678	
9.31452	 35.636527	
9.34778	 35.565271	
9.38105	 35.584336	
9.41431	 35.485409	
9.44758	 35.544437	
9.48085	 35.730064	
9.51411	 35.725565	
9.54738	 35.720144	
9.58065	 35.687359	
9.61391	 35.792162	
9.64718	 35.790443	
9.68044	 35.740469	
9.71371	 35.707752	
9.74698	 35.655689	
9.78024	 35.629284	
9.81351	 35.604588	
9.84677	 35.575814	
9.88004	 35.560772	
9.91331	 35.642117	
9.94657	 34.635999	
9.97984	 34.756163	
10.0131	 34.778008	
10.0464	 34.784301	
10.0796	 34.834706	
10.1129	 34.859333	
10.1462	 34.773398	
10.1794	 34.786833	
10.2127	 34.780448	
10.246	 34.708698	
10.2792	 34.809219	
10.3125	 34.679976	
10.3458	 34.764674	
10.379	 34.848763	
10.4123	 34.716619	
10.4456	 34.740954	
10.4788	 34.753038	
10.5121	 34.703302	
10.5454	 34.115226	
10.5786	 34.159131	
10.6119	 34.137929	
10.6452	 34.103702	
10.6784	 34.079857	
10.7117	 34.112796	
10.745	 34.060938	
10.7782	 34.047304	
10.8115	 34.014446	
10.8448	 33.988223	
10.878	 33.898954	
10.9113	 33.886595	
10.9446	 33.842931	
10.9778	 33.855004	
11.0111	 33.928686	
11.0444	 33.969681	
11.0776	 34.071984	
11.1109	 34.165089	
11.1442	 34.204480	
11.1774	 34.256003	
11.2107	 34.306788	
11.244	 34.272323	
11.2772	 34.213424	
11.3105	 34.131320	
11.3437	 34.082380	
11.377	 34.044506	
11.4103	 34.000128	
11.4435	 34.017556	
11.4768	 33.971577	
11.5101	 33.889082	
11.5433	 33.925270	
11.5766	 33.998908	
11.6099	 33.891882	
11.6431	 33.889297	
11.6764	 33.788594	
11.7097	 33.721316	
11.7429	 33.533586	
11.7762	 33.370523	
11.8095	 33.400480	
11.8427	 33.389139	
11.876	 33.374315	
11.9093	 33.383768	
11.9425	 33.413974	
11.9758	 33.423950	
12.0091	 33.424776	
12.0423	 33.438830	
12.0756	 33.403416	
12.1089	 33.411889	
12.1421	 33.356811	
12.1754	 33.329194	
12.2087	 33.345955	
12.2419	 33.395691	
12.2752	 33.311512	
12.3085	 33.357910	
12.3417	 33.440111	
12.375	 33.425590	
12.4083	 33.436798	
12.4415	 33.637500	
12.4748	 33.583116	
12.5081	 33.331776	
12.5413	 33.948820	
12.5746	 33.930939	
12.6079	 33.939545	
12.6411	 33.732033	
12.6744	 33.593261	
12.7077	 33.685048	
12.7409	 33.593602	
12.7742	 33.463790	
12.8075	 33.489744	
12.8407	 33.323442	
12.874	 33.252398	
12.9073	 35.000284	
12.9405	 34.723937	
12.9738	 34.672190	
13.0071	 34.498845	
13.0403	 34.538728	
13.0736	 34.586271	
13.1069	 34.437331	
13.1401	 34.473523	
13.1734	 34.545127	
13.2067	 34.445013	
